<svg xmlns="http://www.w3.org/2000/svg" viewBox="0 0 512 512" role="img" aria-labelledby="title desc">
  <title id="title">Brasco OS Commandor icon preview</title>
  <desc id="desc">A graphite app icon with cyan command nodes and an amber priority marker.</desc>
  <defs>
    <linearGradient id="bg" x1="64" y1="48" x2="448" y2="464" gradientUnits="userSpaceOnUse">
      <stop stop-color="#18222E"/>
      <stop offset="1" stop-color="#0B1017"/>
    </linearGradient>
    <linearGradient id="cyan" x1="152" y1="132" x2="366" y2="382" gradientUnits="userSpaceOnUse">
      <stop stop-color="#7FE7F3"/>
      <stop offset="1" stop-color="#22B8C8"/>
    </linearGradient>
    <filter id="softShadow" x="-20%" y="-20%" width="140%" height="140%">
      <feDropShadow dx="0" dy="18" stdDeviation="20" flood-color="#000000" flood-opacity="0.32"/>
    </filter>
  </defs>
  <rect width="512" height="512" rx="104" fill="url(#bg)"/>
  <path d="M128 160C128 142.3 142.3 128 160 128H352C369.7 128 384 142.3 384 160V352C384 369.7 369.7 384 352 384H160C142.3 384 128 369.7 128 352V160Z" fill="#101823" stroke="#263647" stroke-width="10"/>
  <g filter="url(#softShadow)">
    <path d="M256 130L374 256L256 382L138 256L256 130Z" fill="none" stroke="url(#cyan)" stroke-width="24" stroke-linejoin="round"/>
    <path d="M256 186V326" stroke="#B8F7FF" stroke-width="20" stroke-linecap="round"/>
    <path d="M186 256H326" stroke="#B8F7FF" stroke-width="20" stroke-linecap="round"/>
    <circle cx="256" cy="256" r="42" fill="#101823" stroke="#E7FBFF" stroke-width="18"/>
  </g>
  <circle cx="352" cy="160" r="36" fill="#F2B84B"/>
  <path d="M352 142V164L366 176" fill="none" stroke="#2C1C05" stroke-width="12" stroke-linecap="round" stroke-linejoin="round"/>
  <path d="M160 416H352" stroke="#2A3B4D" stroke-width="16" stroke-linecap="round"/>
</svg>
